REM DIRINDEX 1\2,1\3
REM DIRNAME folder01,folder02,folder03
TITLE ""
FILE "CD2Track21.mp3" MP3
  TRACK 01 AUDIO
    TITLE "0:"
    INDEX 01 00:00:00
  TRACK 02 AUDIO
    TITLE "3:cjc102_3283"
    INDEX 01 00:00:27
  TRACK 03 AUDIO
    TITLE "0:"
    INDEX 01 00:01:22
  TRACK 04 AUDIO
    TITLE "2:cjc102_3284"
    INDEX 01 00:01:42
  TRACK 05 AUDIO
    TITLE "0:"
    INDEX 01 00:02:63
  TRACK 06 AUDIO
    TITLE "3:cjc102_3285"
    INDEX 01 00:03:57
  TRACK 07 AUDIO
    TITLE "0:"
    INDEX 01 00:04:42
  TRACK 08 AUDIO
    TITLE "2:cjc102_3286"
    INDEX 01 00:05:05
  TRACK 09 AUDIO
    TITLE "0:"
    INDEX 01 00:06:12
  TRACK 10 AUDIO
    TITLE "3:cjc102_3287"
    INDEX 01 00:07:29
  TRACK 11 AUDIO
    TITLE "0:"
    INDEX 01 00:08:28
  TRACK 12 AUDIO
    TITLE "2:cjc102_3288"
    INDEX 01 00:08:34
  TRACK 13 AUDIO
    TITLE "0:"
    INDEX 01 00:09:42
  TRACK 14 AUDIO
    TITLE "3:cjc102_3289"
    INDEX 01 00:10:53
  TRACK 15 AUDIO
    TITLE "0:"
    INDEX 01 00:11:48
  TRACK 16 AUDIO
    TITLE "2:cjc102_3290"
    INDEX 01 00:11:72
  TRACK 17 AUDIO
    TITLE "0:"
    INDEX 01 00:13:00
  TRACK 18 AUDIO
    TITLE "3:cjc102_3291"
    INDEX 01 00:14:33
  TRACK 19 AUDIO
    TITLE "0:"
    INDEX 01 00:15:13
  TRACK 20 AUDIO
    TITLE "2:cjc102_3292"
    INDEX 01 00:15:54
  TRACK 21 AUDIO
    TITLE "0:"
    INDEX 01 00:16:57
  TRACK 22 AUDIO
    TITLE "3:cjc102_3293"
    INDEX 01 00:17:74
  TRACK 23 AUDIO
    TITLE "0:"
    INDEX 01 00:18:72
  TRACK 24 AUDIO
    TITLE "2:cjc102_3294"
    INDEX 01 00:19:28
  TRACK 25 AUDIO
    TITLE "0:"
    INDEX 01 00:20:30
  TRACK 26 AUDIO
    TITLE "3:cjc102_3295"
    INDEX 01 00:21:47
  TRACK 27 AUDIO
    TITLE "0:"
    INDEX 01 00:22:42
  TRACK 28 AUDIO
    TITLE "2:cjc102_3296"
    INDEX 01 00:22:64
  TRACK 29 AUDIO
    TITLE "0:"
    INDEX 01 00:23:67
  TRACK 30 AUDIO
    TITLE "3:cjc102_3297"
    INDEX 01 00:25:03
  TRACK 31 AUDIO
    TITLE "0:"
    INDEX 01 00:25:72
  TRACK 32 AUDIO
    TITLE "2:cjc102_3298"
    INDEX 01 00:26:52
  TRACK 33 AUDIO
    TITLE "0:"
    INDEX 01 00:27:73
  TRACK 34 AUDIO
    TITLE "3:cjc102_3299"
    INDEX 01 00:28:60
  TRACK 35 AUDIO
    TITLE "0:"
    INDEX 01 00:29:54
  TRACK 36 AUDIO
    TITLE "2:cjc102_3300"
    INDEX 01 00:30:30
  TRACK 37 AUDIO
    TITLE "0:"
    INDEX 01 00:31:43
  TRACK 38 AUDIO
    TITLE "3:cjc102_3301"
    INDEX 01 00:32:52
  TRACK 39 AUDIO
    TITLE "0:"
    INDEX 01 00:33:48
  TRACK 40 AUDIO
    TITLE "2:cjc102_3302"
    INDEX 01 00:34:26
  TRACK 41 AUDIO
    TITLE "0:"
    INDEX 01 00:35:27
  TRACK 42 AUDIO
    TITLE "3:cjc102_3303"
    INDEX 01 00:35:59
  TRACK 43 AUDIO
    TITLE "0:"
    INDEX 01 00:37:01
  TRACK 44 AUDIO
    TITLE "2:cjc102_3304"
    INDEX 01 00:38:06
  TRACK 45 AUDIO
    TITLE "0:"
    INDEX 01 00:39:07
  TRACK 46 AUDIO
    TITLE "3:cjc102_3305"
    INDEX 01 00:39:56
  TRACK 47 AUDIO
    TITLE "0:"
    INDEX 01 00:40:70
  TRACK 48 AUDIO
    TITLE "2:cjc102_3306"
    INDEX 01 00:41:44
  TRACK 49 AUDIO
    TITLE "0:"
    INDEX 01 00:42:55
  TRACK 50 AUDIO
    TITLE "3:cjc102_3307"
    INDEX 01 00:43:58
  TRACK 51 AUDIO
    TITLE "0:"
    INDEX 01 00:45:04
  TRACK 52 AUDIO
    TITLE "2:cjc102_3308"
    INDEX 01 00:45:24
  TRACK 53 AUDIO
    TITLE "0:"
    INDEX 01 00:46:39
  TRACK 54 AUDIO
    TITLE "3:cjc102_3309"
    INDEX 01 00:47:34
  TRACK 55 AUDIO
    TITLE "0:"
    INDEX 01 00:48:53
  TRACK 56 AUDIO
    TITLE "2:cjc102_3310"
    INDEX 01 00:49:04
  TRACK 57 AUDIO
    TITLE "0:"
    INDEX 01 00:50:09
  TRACK 58 AUDIO
    TITLE "3:cjc102_3311"
    INDEX 01 00:51:28
  TRACK 59 AUDIO
    TITLE "0:"
    INDEX 01 00:52:36
  TRACK 60 AUDIO
    TITLE "2:cjc102_3312"
    INDEX 01 00:53:21
  TRACK 61 AUDIO
    TITLE "0:"
    INDEX 01 00:54:54
  TRACK 62 AUDIO
    TITLE "3:cjc102_3313"
    INDEX 01 00:55:69
  TRACK 63 AUDIO
    TITLE "0:"
    INDEX 01 00:57:03
  TRACK 64 AUDIO
    TITLE "2:cjc102_3314"
    INDEX 01 00:57:41
  TRACK 65 AUDIO
    TITLE "0:"
    INDEX 01 00:58:54
  TRACK 66 AUDIO
    TITLE "3:cjc102_3315"
    INDEX 01 01:00:00
  TRACK 67 AUDIO
    TITLE "0:"
    INDEX 01 01:01:21
  TRACK 68 AUDIO
    TITLE "2:cjc102_3316"
    INDEX 01 01:01:66
  TRACK 69 AUDIO
    TITLE "0:"
    INDEX 01 01:03:00
  TRACK 70 AUDIO
    TITLE "3:cjc102_3317"
    INDEX 01 01:04:23
  TRACK 71 AUDIO
    TITLE "0:"
    INDEX 01 01:05:48
  TRACK 72 AUDIO
    TITLE "2:cjc102_3318"
    INDEX 01 01:06:24
  TRACK 73 AUDIO
    TITLE "0:"
    INDEX 01 01:07:33
  TRACK 74 AUDIO
    TITLE "3:cjc102_3319"
    INDEX 01 01:08:50
  TRACK 75 AUDIO
    TITLE "0:"
    INDEX 01 01:09:73
  TRACK 76 AUDIO
    TITLE "2:cjc102_3320"
    INDEX 01 01:10:18
  TRACK 77 AUDIO
    TITLE "0:"
    INDEX 01 01:11:45
  TRACK 78 AUDIO
    TITLE "3:cjc102_3321"
    INDEX 01 01:12:48
  TRACK 79 AUDIO
    TITLE "0:"
    INDEX 01 01:13:61
  TRACK 80 AUDIO
    TITLE "2:cjc102_3322"
    INDEX 01 01:14:17
  TRACK 81 AUDIO
    TITLE "0:"
    INDEX 01 01:15:40
  TRACK 82 AUDIO
    TITLE "3:cjc102_3323"
    INDEX 01 01:16:32
  TRACK 83 AUDIO
    TITLE "0:"
    INDEX 01 01:17:61
  TRACK 84 AUDIO
    TITLE "2:cjc102_3324"
    INDEX 01 01:18:13
  TRACK 85 AUDIO
    TITLE "0:"
    INDEX 01 01:19:21
  TRACK 86 AUDIO
    TITLE "3:cjc102_3325"
    INDEX 01 01:19:50
  TRACK 87 AUDIO
    TITLE "0:"
    INDEX 01 01:20:73
  TRACK 88 AUDIO
    TITLE "2:cjc102_3326"
    INDEX 01 01:21:45
  TRACK 89 AUDIO
    TITLE "0:"
    INDEX 01 01:22:48
  TRACK 90 AUDIO
    TITLE "3:cjc102_3327"
    INDEX 01 01:23:56
  TRACK 91 AUDIO
    TITLE "0:"
    INDEX 01 01:25:08
  TRACK 92 AUDIO
    TITLE "2:cjc102_3328"
    INDEX 01 01:25:39
  TRACK 93 AUDIO
    TITLE "0:"
    INDEX 01 01:26:42
  TRACK 94 AUDIO
    TITLE "3:cjc102_3329"
    INDEX 01 01:27:18
  TRACK 95 AUDIO
    TITLE "0:"
    INDEX 01 01:28:51
  TRACK 96 AUDIO
    TITLE "2:cjc102_3330"
    INDEX 01 01:28:67
  TRACK 97 AUDIO
    TITLE "0:"
    INDEX 01 01:29:66
  TRACK 98 AUDIO
    TITLE "3:cjc102_3331"
    INDEX 01 01:30:73
  TRACK 99 AUDIO
    TITLE "0:"
    INDEX 01 01:32:19
  TRACK 100 AUDIO
    TITLE "2:cjc102_3332"
    INDEX 01 01:32:70
  TRACK 101 AUDIO
    TITLE "0:"
    INDEX 01 01:33:72
  TRACK 102 AUDIO
    TITLE "2:cjc102_3333"
    INDEX 01 01:34:59
  TRACK 103 AUDIO
    TITLE "0:"
    INDEX 01 01:36:13
  TRACK 104 AUDIO
    TITLE "3:cjc102_3334"
    INDEX 01 01:36:48
  TRACK 105 AUDIO
    TITLE "0:"
    INDEX 01 01:38:10
  TRACK 106 AUDIO
    TITLE "2:cjc102_3335"
    INDEX 01 01:38:28
  TRACK 107 AUDIO
    TITLE "0:"
    INDEX 01 01:39:39
  TRACK 108 AUDIO
    TITLE "2:cjc102_3336"
    INDEX 01 01:40:29
  TRACK 109 AUDIO
    TITLE "0:"
    INDEX 01 01:41:36
  TRACK 110 AUDIO
    TITLE "3:cjc102_3337"
    INDEX 01 01:42:10
  TRACK 111 AUDIO
    TITLE "0:"
    INDEX 01 01:43:43
  TRACK 112 AUDIO
    TITLE "2:cjc102_3338"
    INDEX 01 01:43:62
  TRACK 113 AUDIO
    TITLE "0:"
    INDEX 01 01:44:72
  TRACK 114 AUDIO
    TITLE "2:cjc102_3339"
    INDEX 01 01:45:55
  TRACK 115 AUDIO
    TITLE "0:"
    INDEX 01 01:46:61
  TRACK 116 AUDIO
    TITLE "3:cjc102_3340"
    INDEX 01 01:47:54
  TRACK 117 AUDIO
    TITLE "0:"
    INDEX 01 01:49:12
  TRACK 118 AUDIO
    TITLE "2:cjc102_3341"
    INDEX 01 01:49:59
  TRACK 119 AUDIO
    TITLE "0:"
    INDEX 01 01:50:70
  TRACK 120 AUDIO
    TITLE "2:cjc102_3342"
    INDEX 01 01:51:48
  TRACK 121 AUDIO
    TITLE "0:"
    INDEX 01 01:52:53
  TRACK 122 AUDIO
    TITLE "3:cjc102_3343"
    INDEX 01 01:53:67
  TRACK 123 AUDIO
    TITLE "0:"
    INDEX 01 01:55:24
  TRACK 124 AUDIO
    TITLE "2:cjc102_3344"
    INDEX 01 01:55:46
  TRACK 125 AUDIO
    TITLE "0:"
    INDEX 01 01:56:51
  TRACK 126 AUDIO
    TITLE "2:cjc102_3345"
    INDEX 01 01:57:45
  TRACK 127 AUDIO
    TITLE "0:"
    INDEX 01 01:58:42
  TRACK 128 AUDIO
    TITLE "3:cjc102_3346"
    INDEX 01 01:59:50
  TRACK 129 AUDIO
    TITLE "0:"
    INDEX 01 02:00:69
  TRACK 130 AUDIO
    TITLE "2:cjc102_3347"
    INDEX 01 02:01:33
  TRACK 131 AUDIO
    TITLE "0:"
    INDEX 01 02:02:42
  TRACK 132 AUDIO
    TITLE "2:cjc102_3348"
    INDEX 01 02:03:43
  TRACK 133 AUDIO
    TITLE "0:"
    INDEX 01 02:04:55
  TRACK 134 AUDIO
    TITLE "3:cjc102_3349"
    INDEX 01 02:06:01
  TRACK 135 AUDIO
    TITLE "0:"
    INDEX 01 02:07:33
  TRACK 136 AUDIO
    TITLE "2:cjc102_3350"
    INDEX 01 02:08:03
  TRACK 137 AUDIO
    TITLE "0:"
    INDEX 01 02:09:03
  TRACK 138 AUDIO
    TITLE "2:cjc102_3351"
    INDEX 01 02:10:00
  TRACK 139 AUDIO
    TITLE "0:"
    INDEX 01 02:11:04
  TRACK 140 AUDIO
    TITLE "3:cjc102_3352"
    INDEX 01 02:12:48
  TRACK 141 AUDIO
    TITLE "0:"
    INDEX 01 02:14:00
  TRACK 142 AUDIO
    TITLE "2:cjc102_3353"
    INDEX 01 02:14:28
  TRACK 143 AUDIO
    TITLE "0:"
    INDEX 01 02:15:49
  TRACK 144 AUDIO
    TITLE "2:cjc102_3354"
    INDEX 01 02:16:19
  TRACK 145 AUDIO
    TITLE "0:"
    INDEX 01 02:17:34
  TRACK 146 AUDIO
    TITLE "3:cjc102_3355"
    INDEX 01 02:18:33
  TRACK 147 AUDIO
    TITLE "0:"
    INDEX 01 02:20:01
  TRACK 148 AUDIO
    TITLE "2:cjc102_3356"
    INDEX 01 02:20:48
  TRACK 149 AUDIO
    TITLE "0:"
    INDEX 01 02:21:37
  TRACK 150 AUDIO
    TITLE "2:cjc102_3357"
    INDEX 01 02:22:41
  TRACK 151 AUDIO
    TITLE "0:"
    INDEX 01 02:23:58
